<svg xmlns="http://www.w3.org/2000/svg" xmlns:svgjs="http://svgjs.com/svgjs" xmlns:xlink="http://www.w3.org/1999/xlink" width="288" height="288"><svg xmlns="http://www.w3.org/2000/svg" width="288" height="288" data-name="Layer 1" viewBox="0 0 46 46"><defs><clipPath id="a"><path fill="none" d="M6 6h34v34H6z"/></clipPath></defs><g fill="#737373" class="color000 svgShape" clip-path="url(#a)"><path d="M36 13v24a3 3 0 0 1-3 3H21v-2h12a1 1 0 0 0 1-1V13Z" class="color000 svgShape"/><path d="M36 9v2h-2V9a1 1 0 0 0-1-1H13a1 1 0 0 0-1 1v28a1 1 0 0 0 1 1h2v2h-2a3 3 0 0 1-3-3V9a3 3 0 0 1 3-3h20a3 3 0 0 1 3 3Z" class="color000 svgShape"/><path d="M23 15h7v2h-7zM18.61 17.42l-3.06-1.53.9-1.78 1.61.8 2.16-2.7 1.56 1.25-3.17 3.96zM23 23h7v2h-7zM18.61 25.42l-3.06-1.53.9-1.78 1.61.8 2.16-2.7 1.56 1.25-3.17 3.96zM17 38h2v2h-2z" class="color000 svgShape"/></g></svg></svg>