<svg xmlns="http://www.w3.org/2000/svg" xmlns:svgjs="http://svgjs.com/svgjs" xmlns:xlink="http://www.w3.org/1999/xlink" width="288" height="288"><svg xmlns="http://www.w3.org/2000/svg" width="288" height="288" viewBox="0 0 29 29"><path fill="#737373" d="m14.854 6.083-.354.353-.354-.354a6.5 6.5 0 0 0-9.192 9.192l.354.354L14.5 24.82l9.192-9.192.354-.354a6.5 6.5 0 0 0-9.192-9.191z" class="color000 svgShape"/><path fill="#737373" d="m14.854 6.083-.354.353-.354-.354a6.5 6.5 0 0 0-9.192 9.192l.354.354L14.5 24.82l9.192-9.192.354-.354a6.5 6.5 0 0 0-9.192-9.191z" class="color000 svgShape"/></svg></svg>